# AST/ASF file generated using VICON BodyLanguage
# -----------------------------------------------
:version 1.10
:name VICON
:units
  mass 1.0
  length 0.45
  angle deg
:documentation
   .ast/.asf automatically generated from VICON data using
   VICON BodyBuilder and BodyLanguage model FoxedUp or BRILLIANT.MOD
:root
   order TX TY TZ RX RY RZ
   axis XYZ
   position 0 0 0  
   orientation 0 0 0 
:bonedata
  begin
     id 1 
     name lhipjoint
     direction 0.78388 -0.462562 0.414208 
     length 3.01181 
     axis 0 0 0  XYZ
  end
  begin
     id 2 
     name lfemur
     direction 0.34202 -0.939693 0  
     length 6.04673  
     axis 0 0 20  XYZ
    dof rx ry rz
    limits (-160.0 20.0)
           (-70.0 70.0)
           (-60.0 70.0)
  end
  begin
     id 3 
     name ltibia
     direction 0.34202 -0.939693 0   
     length 7.211   
     axis 0 0 20   XYZ
    dof rx
    limits (-10.0 170.0)
  end
  begin
     id 4 
     name lfoot
     direction 0.121887 -0.334882 0.934344   
     length 2.13567   
     axis -90 7.62852e-016 20   XYZ
    dof rx rz
    limits (-45.0 90.0)
           (-70.0 20.0)
  end
  begin
     id 5 
     name ltoes
     direction 1.53555e-011 -4.2179e-011 1   
     length 1.05957   
     axis -90 7.62852e-016 20   XYZ
    dof rx
    limits (-90.0 20.0)
  end
  begin
     id 6 
     name rhipjoint
     direction -0.769387 -0.475875 0.426129   
     length 2.92756  
     axis 0 0 0  XYZ 
  end
  begin
     id 7 
     name rfemur
     direction -0.34202 -0.939693 0   
     length 6.35468   
     axis 0 0 -20   XYZ
    dof rx ry rz
    limits (-160.0 20.0)
           (-70.0 70.0)
           (-70.0 60.0)
  end
  begin
     id 8 
     name rtibia
     direction -0.34202 -0.939693 0   
     length 7.37886   
     axis 0 0 -20   XYZ
    dof rx
    limits (-10.0 170.0)
 end
 begin
     id 9 
     name rfoot
     direction -0.101763 -0.279592 0.954711   
     length 2.21478  
     axis -90 -7.62852e-016 -20   XYZ
    dof rx rz
    limits (-45.0 90.0)
           (-20.0 70.0)
  end
  begin
     id 10 
     name rtoes
     direction -1.53494e-011 -4.21851e-011 1   
     length 1.10506   
     axis -90 -7.62852e-016 -20   XYZ
    dof rx
    limits (-90.0 20.0)
  end
  begin
     id 11 
     name lowerback
     direction 0.00747405 0.999267 0.0375481   
     length 2.13259   
     axis 0 0 0   XYZ
    dof rx ry rz
    limits (-20.0 45.0)
           (-30.0 30.0)
           (-30.0 30.0)
  end
  begin
     id 12 
     name upperback
     direction 0.00661626 0.996177 0.0871029   
     length 2.10528   
     axis 0 0 0   XYZ
    dof rx ry rz
    limits (-20.0 45.0)
           (-30.0 30.0)
           (-30.0 30.0)
  end
  begin
     id 13 
     name thorax
     direction 0.00320659 0.997679 0.0680167   
     length 2.11338   
     axis 0 0 0   XYZ
    dof rx ry rz
    limits (-20.0 45.0)
           (-30.0 30.0)
           (-30.0 30.0)
  end
  begin
     id 14 
     name lowerneck
     direction 0.0374841 0.973033 0.227602   
     length 1.42765   
     axis 0 0 0   XYZ
    dof rx ry rz
    limits (-20.0 45.0)
           (-30.0 30.0)
           (-30.0 30.0)
  end
  begin
     id 15 
     name upperneck
     direction 0.00481585 0.989155 -0.146795   
     length 1.47593   
     axis 0 0 0   XYZ
    dof rx ry rz
    limits (-20.0 45.0)
           (-30.0 30.0)
           (-30.0 30.0)
  end
  begin
     id 16
     name head
     direction -0.00292522 0.997206 -0.0746423  
     length 1.48116  
     axis 0 0 0   XYZ
    dof rx ry rz
    limits (-20.0 45.0)
           (-30.0 30.0)
           (-30.0 30.0)
  end
  begin
     id 17 
     name lclavicle
     direction 0.951444 0.305606 0.0368784  
     length 3.01855  
     axis 0 0 0   XYZ
    dof ry rz
    limits (-20.0 10.0)
           (0.0 20.0)
  end
  begin
     id 18 
     name lhumerus
     direction 1 -4.48977e-011 2.61664e-027   
     length 5.52731   
     axis 180 -30 -90   XYZ
    dof rx ry rz
    limits (-60.0 90.0)
           (-90.0 90.0)
           (-90.0 90.0)
  end
  begin
     id 19
     name lradius
     direction 1 -4.48944e-011 8.22157e-027   
     length 3.11059   
     axis 180 -30 -90   XYZ
    dof rx
    limits (-10.0 170.0)
  end
  begin
     id 20
     name lwrist
     direction 1 -4.48976e-011 1.5779e-026   
     length 1.5553   
     axis -1.15221e-014 90 90   XYZ
    dof ry
    limits (-180.0 0.0)
 end
  begin
     id 21 
     name lhand
     direction 1 -4.49025e-011 3.1558e-026   
     length 0.419626   
     axis -2.01367e-014 90 90   XYZ
    dof rx rz
    limits (-90.0 90.0)
           (-45.0 45.0)
  end
  begin
     id 22 
     name lfingers
     direction 1 -4.4904e-011 6.31161e-026   
     length 0.338313   
     axis -4.02734e-014 90 90   XYZ
    dof rx
    limits (0.0 90.0)
  end
  begin
     id 23
     name lthumb
     direction 0.707107 -6.35004e-011 0.707107   
     length 0.485752   
     axis -90 45 2.85299e-015   XYZ
    dof rx rz
    limits (-45.0 45.0)
           (-45.0 45.0)
  end
  begin
     id 24 
     name rclavicle
     direction -0.968876 0.223791 0.105816   
     length 3.04177  
     axis 0 0 0   XYZ 
    dof ry rz
    limits (-10.0 20.0)
           (-20.0 0.0)
  end
  begin
     id 25 
     name rhumerus
     direction -1 -4.48962e-011 -1.01384e-027  
     length 5.25396   
     axis 180 30 90   XYZ
    dof rx ry rz
    limits (-90.0 60.0)
           (-90.0 90.0)
           (-90.0 90.0)
  end
  begin
     id 26 
     name rradius
     direction -1 -4.48955e-011 8.88542e-027   
     length 3.10567   
     axis 180 30 90   XYZ
    dof rx
    limits (-10.0 170.0)
  end
  begin
     id 27 
     name rwrist
     direction -1 -4.48994e-011 1.5779e-026   
     length 1.55283   
     axis -1.15221e-014 -90 -90   XYZ
    dof ry
    limits (-180.0 0.0)
  end
  begin
     id 28
     name rhand
     direction -1 -4.48891e-011 3.1558e-026   
     length 0.498676   
     axis -2.01367e-014 -90 -90   XYZ
    dof rx rz
    limits (-90.0 90.0)
           (-45.0 45.0)
  end
  begin
     id 29
     name rfingers
     direction -1 -4.48972e-011 6.31161e-026   
     length 0.402045   
     axis -4.02734e-014 -90 -90   XYZ
    dof rx
    limits (0.0 90.0)
  end
  begin
     id 30
     name rthumb
     direction -0.707107 -6.34849e-011 0.707107   
     length 0.577259   
     axis -90 -45 -2.85299e-015   XYZ
    dof rx rz
    limits (-45.0 45.0)
           (-45.0 45.0)
  end
:hierarchy
  begin
    root lhipjoint rhipjoint lowerback
    lhipjoint lfemur
    lfemur ltibia
    ltibia lfoot
    lfoot ltoes
    rhipjoint rfemur
    rfemur rtibia
    rtibia rfoot
    rfoot rtoes
    lowerback upperback
    upperback thorax
    thorax lowerneck lclavicle rclavicle
    lowerneck upperneck
    upperneck head
    lclavicle lhumerus
    lhumerus lradius
    lradius lwrist
    lwrist lhand lthumb
    lhand lfingers
    rclavicle rhumerus
    rhumerus rradius
    rradius rwrist
    rwrist rhand rthumb
    rhand rfingers
  end

#!OML:ASF H:\Pregnant\Project 1\Capture day 1\Session 1\femalepreg.ASF
:FULLY-SPECIFIED
:DEGREES
191
root 12.151 13.5329 38.7501 -141.319 9.63944 178.859
lowerback -3.61194 0.308354 1.21092
upperback -0.286777 0.518508 4.94193
thorax 1.69524 0.356572 4.45155
lowerneck -24.3601 3.52369 7.70882
upperneck 31.1524 2.4546 2.3953
head 15.0646 2.7175 0.284931
rclavicle -6.36111e-015 -8.90555e-014
rhumerus -1.53937 28.2838 -79.9532
rradius 31.4396
rwrist -4.93115
rhand -18.7521 -21.5753
rfingers 7.12502
rthumb 7.54442 -51.4208
lclavicle -6.36111e-015 -8.90555e-014
lhumerus -12.3474 -35.0462 84.1035
lradius 39.3379
lwrist 45.7483
lhand -27.3318 5.37773
lfingers 7.12502
lthumb -0.740508 35.3562
rfemur -83.9523 -3.53927 27.8888
rtibia 70.8895
rfoot -24.2913 -0.103675
rtoes -1.59584
lfemur -76.0206 11.1982 -32.2177
ltibia 67.0476
lfoot -27.9271 0.466262
ltoes -13.6602
192
root 12.1645 13.476 38.761 -141.255 9.56187 178.879
lowerback -3.28995 0.263466 1.19064
upperback -0.171916 0.460636 4.92137
thorax 1.63688 0.32402 4.43536
lowerneck -24.4183 3.60049 7.70641
upperneck 30.9593 2.53769 2.3781
head 14.9915 2.73374 0.288801
rclavicle 7.95139e-016 -1.43125e-014
rhumerus -1.03665 28.2953 -79.8748
rradius 31.5468
rwrist -5.03894
rhand -18.8161 -21.5415
rfingers 7.12502
rthumb 7.48266 -51.3891
lclavicle 7.95139e-016 -1.43125e-014
lhumerus -11.4887 -35.3003 83.6479
lradius 39.1739
lwrist 45.622
lhand -27.2538 5.38279
lfingers 7.12502
lthumb -0.665171 35.3615
rfemur -84.5456 -3.75118 28.2585
rtibia 71.6432
rfoot -24.5284 0.224411
rtoes -1.09348
lfemur -76.7373 11.406 -32.3099
ltibia 68.0259
lfoot -28.2823 0.0979615
ltoes -12.9659
193
root 12.178 13.4178 38.7712 -141.205 9.47944 178.901
lowerback -2.97287 0.220967 1.18114
upperback -0.0487894 0.404919 4.8905
thorax 1.58966 0.292493 4.40305
lowerneck -24.4813 3.67849 7.70341
upperneck 30.7635 2.61917 2.3719
head 14.9185 2.7512 0.297191
rclavicle -3.73715e-014 2.22639e-014
rhumerus -0.495671 28.3503 -79.788
rradius 31.6183
rwrist -5.1979
rhand -18.8774 -21.5722
rfingers 7.12502
rthumb 7.4235 -51.422
lclavicle -3.73715e-014 2.22639e-014
lhumerus -10.6025 -35.5361 83.1619
lradius 39.0075
lwrist 45.4877
lhand -27.195 5.37528
lfingers 7.12502
lthumb -0.608451 35.3542
rfemur -85.129 -3.96768 28.636
rtibia 72.4081
rfoot -24.771 0.550708
rtoes -0.593051
lfemur -77.4436 11.6279 -32.4041
ltibia 69.0098
lfoot -28.6378 -0.292355
ltoes -12.2516
194
root 12.1918 13.3591 38.781 -141.173 9.39174 178.923
lowerback -2.64451 0.184415 1.17118
upperback 0.0759906 0.357855 4.85318
thorax 1.53712 0.265466 4.36499
lowerneck -24.5382 3.74925 7.70148
upperneck 30.5605 2.68765 2.37616
head 14.8409 2.76529 0.306972
rclavicle -3.89618e-014 -6.67916e-014
rhumerus 0.0548735 28.4234 -79.6929
rradius 31.6595
rwrist -5.37251
rhand -18.9559 -21.5833
rfingers 7.12502
rthumb 7.34771 -51.4357
lclavicle -3.89618e-014 -6.67916e-014
lhumerus -9.70686 -35.7793 82.6663
lradius 38.8389
lwrist 45.332
lhand -27.2267 5.31581
lfingers 7.12502
lthumb -0.639039 35.2946
rfemur -85.6894 -4.17956 29.0093
rtibia 73.1777
rfoot -25.0196 0.862114
rtoes -0.0900773
lfemur -78.1284 11.8642 -32.4984
ltibia 69.9914
lfoot -28.9924 -0.706037
ltoes -11.512
195
root 12.2059 13.3 38.7906 -141.159 9.29266 178.939
lowerback -2.30846 0.145397 1.15468
upperback 0.204765 0.308319 4.817
thorax 1.48437 0.237397 4.3322
lowerneck -24.599 3.81929 7.68332
upperneck 30.3578 2.75721 2.3951
head 14.7639 2.78045 0.325869
rclavicle -2.14687e-014 -4.45278e-014
rhumerus 0.605799 28.494 -79.5879
rradius 31.7018
rwrist -5.52099
rhand -18.9944 -21.7003
rfingers 7.12502
rthumb 7.3106 -51.554
lclavicle -2.14687e-014 -4.45278e-014
lhumerus -8.80626 -36.0066 82.1689
lradius 38.6689
lwrist 45.1329
lhand -27.3082 5.14365
lfingers 7.12502
lthumb -0.717736 35.1222
rfemur -86.2348 -4.3986 29.3801
rtibia 73.9553
rfoot -25.2788 1.16015
rtoes 0.405086
lfemur -78.7957 12.1052 -32.5955
ltibia 70.9702
lfoot -29.3402 -1.14146
ltoes -10.7568
196
root 12.2202 13.2402 38.8005 -141.158 9.17122 178.94
lowerback -1.94624 0.0988322 1.11936
upperback 0.318344 0.251864 4.79177
thorax 1.40153 0.206488 4.32144
lowerneck -24.6352 3.87632 7.63983
upperneck 30.1561 2.8206 2.42123
head 14.6814 2.79194 0.350194
rclavicle -2.62396e-014 -7.31528e-014
rhumerus 1.13397 28.5521 -79.4777
rradius 31.6892
rwrist -5.61901
rhand -19.0209 -21.818
rfingers 7.12502
rthumb 7.285 -51.6725
lclavicle -2.62396e-014 -7.31528e-014
lhumerus -7.92833 -36.2115 81.6993
lradius 38.5035
lwrist 44.9158
lhand -27.4264 4.96512
lfingers 7.12502
lthumb -0.831958 34.9432
rfemur -86.7735 -4.62691 29.7344
rtibia 74.7414
rfoot -25.5473 1.42638
rtoes 0.888389
lfemur -79.4522 12.3309 -32.6982
ltibia 71.9418
lfoot -29.6695 -1.5878
ltoes -10.0151
197
root 12.2349 13.18 38.8107 -141.174 9.0259 178.929
lowerback -1.56495 0.0475091 1.07057
upperback 0.430442 0.190917 4.77586
thorax 1.30667 0.173756 4.32845
lowerneck -24.6761 3.92784 7.59166
upperneck 29.9573 2.87985 2.44006
head 14.6014 2.80039 0.371581
rclavicle 3.57812e-014 7.79236e-014
rhumerus 1.5984 28.5253 -79.3744
rradius 31.7361
rwrist -5.6232
rhand -19.0397 -21.8652
rfingers 7.12502
rthumb 7.26685 -51.7204
lclavicle 3.57812e-014 7.79236e-014
lhumerus -7.04443 -36.4009 81.2393
lradius 38.3414
lwrist 44.7031
lhand -27.5999 4.72827
lfingers 7.12502
lthumb -0.999465 34.7057
rfemur -87.2971 -4.87266 30.0836
rtibia 75.5329
rfoot -25.8254 1.67993
rtoes 1.38953
lfemur -80.0923 12.5459 -32.8028
ltibia 72.9063
lfoot -29.9779 -2.04198
ltoes -9.29984
198
root 12.2499 13.1196 38.8209 -141.209 8.8656 178.911
lowerback -1.16682 0.0162636 1.041
upperback 0.55142 0.155798 4.72914
thorax 1.20982 0.153804 4.29357
lowerneck -24.7795 3.97564 7.60387
upperneck 29.7754 2.90392 2.45405
head 14.5436 2.80148 0.376261
rclavicle -1.90833e-014 -5.56597e-015
rhumerus 2.05262 28.3536 -79.3079
rradius 31.7633
rwrist -5.56616
rhand -19.0714 -21.8377
rfingers 7.12502
rthumb 7.23619 -51.694
lclavicle -1.90833e-014 -5.56597e-015
lhumerus -6.10809 -36.6752 80.7199
lradius 38.1945
lwrist 44.5074
lhand -27.8551 4.40865
lfingers 7.12502
lthumb -1.24601 34.3848
rfemur -87.8004 -5.12095 30.4201
rtibia 76.3269
rfoot -26.1117 1.91235
rtoes 1.90168
lfemur -80.7133 12.7607 -32.9104
ltibia 73.8642
lfoot -30.2687 -2.50315
ltoes -8.61451
199
root 12.2654 13.0588 38.8311 -141.257 8.69232 178.89
lowerback -0.759767 -0.000624012 1.02808
upperback 0.677818 0.139441 4.66085
thorax 1.11227 0.143356 4.22759
lowerneck -24.9067 4.01755 7.65906
upperneck 29.5918 2.90088 2.46352
head 14.491 2.79583 0.367421
rclavicle 2.62396e-014 3.18055e-014
rhumerus 2.50382 28.0864 -79.2648
rradius 31.7668
rwrist -5.49025
rhand -19.0935 -21.7852
rfingers 7.12502
rthumb 7.21488 -51.6422
lclavicle 2.62396e-014 3.18055e-014
lhumerus -5.12841 -36.9802 80.1548
lradius 38.0641
lwrist 44.3631
lhand -28.1016 4.13287
lfingers 7.12502
lthumb -1.48406 34.1075
rfemur -88.2835 -5.36066 30.74
rtibia 77.1203
rfoot -26.4023 2.12455
rtoes 2.45147
lfemur -81.3245 12.9799 -33.0196
ltibia 74.8228
lfoot -30.5428 -2.97013
ltoes -7.95456
